<?xml version="1.0" standalone="no"?>
<!DOCTYPE svg PUBLIC "-//W3C//DTD SVG 20010904//EN"
 "http://www.w3.org/TR/2001/REC-SVG-20010904/DTD/svg10.dtd">
<svg version="1.0" xmlns="http://www.w3.org/2000/svg"
 width="131.000000pt" height="58.000000pt" viewBox="0 0 131.000000 58.000000"
 preserveAspectRatio="xMidYMid meet">

<g transform="translate(0.000000,58.000000) scale(0.100000,-0.100000)"
fill="#000000" stroke="none">
<path d="M118 467 l21 -22 -24 -165 c-14 -91 -25 -168 -25 -172 0 -5 20 -8 44
-8 l44 0 6 48 c14 102 13 101 59 104 41 3 42 4 45 41 l3 37 -42 0 c-38 0 -41
2 -35 23 3 12 6 30 6 40 0 14 9 17 58 17 l57 0 1 -92 c1 -95 24 -197 49 -218
9 -8 27 3 69 40 82 75 133 169 161 294 24 110 -4 -169 -31 -307 -5 -26 -4 -27
39 -27 50 0 47 -5 62 98 5 32 11 42 26 42 21 0 23 -15 10 -93 l-8 -47 43 0
c48 0 49 2 59 93 5 48 4 71 -5 82 -7 8 -8 15 -2 15 14 0 30 46 37 107 6 44 4
54 -14 72 -19 19 -33 21 -156 21 -100 0 -137 -3 -139 -12 -31 -114 -72 -225
-81 -217 -2 3 3 49 10 104 8 55 15 106 15 113 0 9 -45 12 -192 12 l-191 0 21
-23z m634 -87 c-5 -55 -12 -70 -33 -70 -17 0 -19 5 -13 43 8 61 12 69 31 65
14 -3 17 -11 15 -38z"/>
<path d="M865 470 c19 -20 18 -25 -3 -183 -12 -89 -22 -168 -22 -175 0 -9 13
-12 42 -10 l43 3 22 155 c12 85 24 172 27 193 l6 37 -66 0 c-67 0 -67 0 -49
-20z"/>
<path d="M1033 470 c13 -19 9 -38 -34 -188 -27 -92 -49 -170 -49 -174 0 -5 20
-8 44 -8 41 0 45 2 51 30 5 25 11 30 36 30 26 0 29 -4 29 -30 0 -29 2 -30 45
-30 l45 0 0 195 0 195 -91 0 c-89 0 -90 0 -76 -20z m83 -217 c-2 -3 -13 -3
-23 -1 -19 3 -19 5 1 78 l21 75 3 -74 c2 -40 1 -75 -2 -78z"/>
</g>
</svg>
