<?xml version="1.0" standalone="no"?>
<!DOCTYPE svg PUBLIC "-//W3C//DTD SVG 20010904//EN"
 "http://www.w3.org/TR/2001/REC-SVG-20010904/DTD/svg10.dtd">
<svg version="1.0" xmlns="http://www.w3.org/2000/svg"
 width="1024.000000pt" height="1024.000000pt" viewBox="0 0 1024.000000 1024.000000"
 preserveAspectRatio="xMidYMid meet">

<g transform="translate(0.000000,1024.000000) scale(0.100000,-0.100000)"
fill="#ffffff" stroke="none">
<path d="M1920 8132 c-41 -107 -52 -188 -47 -317 8 -177 60 -336 152 -466 l33
-46 -78 -47 c-374 -227 -706 -550 -913 -886 -110 -180 -220 -448 -266 -650
-21 -92 -52 -282 -47 -288 2 -1 25 30 51 70 79 121 180 249 247 317 64 65 189
171 202 171 4 0 -11 -21 -33 -47 -120 -144 -271 -462 -336 -706 -95 -355 -81
-777 36 -1116 46 -132 148 -333 239 -469 45 -68 84 -122 86 -120 1 2 -2 24 -7
48 -42 184 -52 480 -24 656 16 101 59 272 71 283 4 3 4 -5 1 -19 -26 -112 -15
-367 24 -562 50 -248 160 -487 338 -728 70 -96 256 -282 343 -344 296 -209
624 -314 957 -304 177 6 206 14 130 38 -235 73 -447 270 -526 487 -22 61 -45
233 -31 233 3 0 33 -19 67 -41 99 -66 280 -118 325 -92 14 7 9 17 -29 68 -61
80 -130 222 -157 320 -31 115 -31 355 0 468 27 98 88 217 150 289 150 176 450
350 620 360 28 2 52 5 52 9 0 14 -149 51 -261 65 -219 27 -366 77 -508 173
-305 208 -437 613 -319 981 24 74 72 175 89 185 6 4 4 -6 -4 -22 -30 -58 -48
-151 -54 -279 -7 -150 6 -257 43 -372 81 -251 309 -455 576 -517 35 -8 150
-23 255 -35 239 -25 341 -48 443 -100 69 -35 170 -156 228 -271 77 -155 175
-265 287 -322 144 -73 439 -108 606 -73 115 25 204 85 255 172 35 60 82 193
84 239 3 65 3 65 -44 65 l-45 0 25 43 c52 91 114 333 114 448 0 27 -5 49 -10
49 -30 0 -181 -93 -327 -202 l-43 -32 -24 23 c-66 62 -103 234 -93 423 15 258
80 419 206 509 30 22 58 39 63 39 16 0 3 -332 -18 -462 -4 -28 -2 -38 8 -38
33 1 227 106 371 203 153 103 207 129 293 142 38 6 42 4 47 -18 15 -56 -40
-263 -103 -387 -17 -33 -26 -60 -20 -60 18 0 193 91 255 133 79 54 189 166
246 252 51 77 119 209 139 268 6 21 39 68 72 105 93 104 150 231 194 427 20
88 44 181 54 208 l18 47 -73 66 c-167 150 -365 279 -630 410 l-189 94 71 0
c63 0 74 3 87 22 20 28 20 88 2 133 -51 120 -270 250 -576 340 -212 63 -366
91 -571 104 -112 7 -135 12 -233 50 -377 147 -774 170 -1198 70 -209 -49 -267
-54 -456 -40 -359 25 -673 96 -871 195 l-70 36 -21 -58z m315 -282 c32 -11
119 -31 194 -46 75 -14 201 -43 281 -64 159 -43 242 -59 304 -61 l41 -1 -40
-9 c-22 -5 -105 -11 -185 -15 -170 -8 -254 5 -390 60 -115 46 -143 30 -105
-60 35 -84 200 -259 314 -333 72 -46 62 -52 -43 -25 -200 52 -343 207 -430
466 -40 119 -39 122 59 88z m2394 -389 c36 -13 115 -48 175 -79 61 -30 157
-72 213 -92 l103 -36 -103 -33 c-134 -44 -171 -64 -234 -122 -48 -45 -56 -49
-102 -49 -61 0 -164 36 -215 75 -48 36 -72 85 -86 171 -6 38 -12 69 -13 70 -1
1 -38 11 -83 22 -84 21 -214 72 -214 84 0 12 86 15 295 13 178 -2 207 -4 264
-24z m1539 -791 c70 -12 161 -20 235 -20 l122 -1 -30 -22 c-99 -72 -190 -183
-243 -295 l-29 -61 -17 62 c-23 84 -86 211 -135 272 -22 28 -49 62 -61 77
l-20 27 32 -10 c18 -5 84 -18 146 -29z m-863 -385 c94 -20 174 -50 346 -130
210 -98 235 -105 394 -105 112 0 135 -2 135 -15 0 -19 -52 -150 -100 -250 -43
-90 -89 -152 -139 -190 -50 -36 -61 -33 -50 13 12 52 23 225 16 253 -6 23 -9
24 -75 21 -86 -4 -114 7 -216 88 -59 48 -82 61 -93 54 -9 -5 -30 -50 -48 -100
-49 -137 -80 -187 -175 -277 l-85 -81 -6 190 c-6 184 -22 291 -55 369 l-13 31
-158 -2 c-123 -1 -175 -7 -237 -23 -106 -28 -219 -78 -322 -143 -104 -64 -298
-246 -380 -355 -32 -43 -62 -82 -67 -88 -14 -16 1 33 33 102 81 176 241 344
446 466 242 145 614 220 849 172z m-1115 -901 c68 -64 122 -170 186 -364 96
-291 175 -352 400 -306 101 21 174 56 308 145 122 82 123 81 80 -47 -65 -196
-199 -321 -360 -338 -168 -18 -355 83 -426 228 -14 29 -47 136 -72 236 -57
223 -84 302 -143 410 -24 45 -39 82 -33 82 6 0 33 -21 60 -46z"/>
<path d="M4523 7355 c-12 -33 4 -115 28 -142 44 -48 123 -67 172 -42 36 19 87
72 87 91 0 21 -64 56 -159 87 -77 25 -119 27 -128 6z"/>
<path d="M7735 4138 c-3 -13 -44 -223 -90 -468 -144 -752 -306 -1584 -311
-1602 -5 -17 10 -18 228 -18 l234 0 83 413 c192 942 341 1682 341 1690 0 4
-108 7 -240 7 l-240 0 -5 -22z"/>
<path d="M8787 4128 c-58 -137 -641 -1524 -741 -1764 -69 -166 -126 -304 -126
-308 0 -3 108 -5 241 -4 l241 3 75 193 76 192 239 0 238 0 0 -88 c0 -49 3
-137 7 -195 l6 -107 244 0 243 0 0 23 c0 25 -50 1048 -80 1631 -11 214 -20
404 -20 423 l0 33 -315 0 -315 0 -13 -32z m233 -806 c0 -154 3 -320 6 -370 l7
-92 -162 0 c-88 0 -161 3 -161 7 0 26 287 733 298 733 9 0 12 -62 12 -278z"/>
<path d="M3662 3587 c-197 -1009 -292 -1495 -297 -1514 l-5 -23 229 0 229 0 5
23 c3 12 33 165 67 339 l62 318 227 2 226 3 36 185 35 185 -223 3 c-141 1
-223 6 -223 12 0 13 59 319 66 343 5 16 27 17 282 17 l278 0 39 198 c21 108
40 205 43 215 4 16 -25 17 -504 17 l-509 0 -63 -323z"/>
<path d="M4832 3567 c-18 -94 -78 -401 -133 -682 -109 -549 -112 -581 -71
-661 42 -83 137 -141 272 -166 31 -6 141 -8 255 -6 171 4 208 8 257 26 120 44
223 133 274 238 19 38 46 152 95 391 125 618 200 988 206 1011 l5 22 -219 0
-220 0 -122 -617 c-68 -340 -128 -634 -134 -653 -18 -51 -67 -80 -136 -80 -77
0 -105 16 -109 60 -2 20 54 316 123 659 69 343 125 626 125 628 0 1 -98 3
-217 3 l-218 0 -33 -173z"/>
<path d="M6041 2913 c-90 -455 -166 -836 -169 -846 -4 -16 9 -17 213 -15 l218
3 51 245 51 245 70 0 70 0 56 -220 c31 -121 59 -232 63 -247 l6 -28 220 0
c130 0 220 4 220 9 0 9 -132 519 -144 558 -4 14 5 24 40 42 63 34 130 95 160
147 37 63 56 131 104 369 62 307 52 388 -56 484 -83 73 -93 74 -579 78 l-430
4 -164 -828z m788 443 c28 -25 27 -64 -4 -215 -29 -144 -45 -178 -90 -197 -40
-16 -265 -20 -265 -4 0 11 79 397 86 423 5 17 17 18 129 15 104 -2 126 -6 144
-22z"/>
</g>
</svg>